<svg width="112" height="104" viewBox="0 0 112 104" fill="none" xmlns="http://www.w3.org/2000/svg">
<path d="M25.8714 53.0466L23.2807 60.7253C22.318 63.6457 20.6793 66.3001 18.4969 68.4745C16.3144 70.6489 13.6493 72.2825 10.7162 73.2435L2.90336 75.8281C2.70674 75.8917 2.52806 76.0008 2.382 76.1464C2.23595 76.292 2.12668 76.4701 2.06318 76.6659C1.99968 76.8617 1.98376 77.0698 2.01672 77.2729C2.04967 77.4761 2.13057 77.6685 2.25277 77.8345C2.41342 78.0587 2.64111 78.2267 2.90336 78.3144L10.7162 80.8933C13.6215 81.8555 16.2611 83.4793 18.4251 85.6354C20.5892 87.7915 22.2179 90.4205 23.182 93.3132L25.7727 101.096C25.8582 101.359 26.0251 101.588 26.2495 101.75C26.4739 101.913 26.7442 102 27.0216 102C27.299 102 27.5693 101.913 27.7937 101.75C28.0181 101.588 28.185 101.359 28.2705 101.096L30.9542 93.4115C31.9198 90.5196 33.5491 87.8915 35.713 85.7356C37.8768 83.5797 40.5155 81.9554 43.4199 80.9916L51.2328 78.4127C51.4967 78.3276 51.7267 78.1615 51.8899 77.9381C52.0531 77.7148 52.141 77.4457 52.141 77.1696C52.141 76.8934 52.0531 76.6244 51.8899 76.401C51.7267 76.1777 51.4967 76.0115 51.2328 75.9264L43.5186 73.2435C40.5847 72.2841 37.9187 70.6512 35.736 68.4765C33.5533 66.3019 31.9153 63.6466 30.9542 60.7253L28.3634 52.9483C28.268 52.6884 28.0922 52.4654 27.8613 52.3114C27.6304 52.1573 27.3563 52.0802 27.0785 52.0911C26.8008 52.1021 26.5337 52.2005 26.3157 52.3722C26.0977 52.5439 25.9401 52.78 25.8656 53.0466M72.6964 3.31468L69.0717 14.0694C67.7234 18.1586 65.4287 21.8751 62.3724 24.9194C59.3161 27.9636 55.5839 30.2503 51.4767 31.595L40.5445 35.2088C40.1739 35.3267 39.8504 35.5589 39.6209 35.8717C39.3914 36.1845 39.2678 36.5619 39.2678 36.9492C39.2678 37.3366 39.3914 37.7139 39.6209 38.0267C39.8504 38.3396 40.1739 38.5717 40.5445 38.6896L51.4767 42.3035C55.5446 43.65 59.2407 45.9228 62.271 48.9412C65.3013 51.9596 67.5822 55.6402 68.9323 59.6903L72.5628 70.5838C72.6869 70.9457 72.9216 71.2599 73.2341 71.4824C73.5466 71.7049 73.9212 71.8245 74.3054 71.8245C74.6896 71.8245 75.0642 71.7049 75.3767 71.4824C75.6892 71.2599 75.9239 70.9457 76.0481 70.5838L79.818 59.829C81.1708 55.7805 83.4527 52.1013 86.4826 49.0834C89.5125 46.0654 93.2071 43.7916 97.2735 42.4422L108.2 38.8284C108.571 38.7105 108.894 38.4783 109.123 38.1655C109.353 37.8527 109.477 37.4754 109.477 37.088C109.477 36.7006 109.353 36.3233 109.123 36.0105C108.894 35.6976 108.571 35.4655 108.2 35.3476L97.4071 31.595C93.2994 30.2524 89.5669 27.9663 86.5113 24.9217C83.4557 21.8772 81.1627 18.1595 79.818 14.0694L76.1875 3.17591C76.0495 2.8182 75.8023 2.51253 75.4808 2.30187C75.1593 2.09121 74.7795 1.98615 74.3948 2.00147C74.0102 2.01678 73.6401 2.1517 73.3365 2.38725C73.0328 2.6228 72.8052 2.94715 72.6964 3.31468Z" stroke="#3CADFF" stroke-width="4" stroke-linecap="round" stroke-linejoin="round"/>
</svg>
