<svg width="94" height="100" viewBox="0 0 94 100" fill="none" xmlns="http://www.w3.org/2000/svg">
<path d="M6.42333 91.483V43.2022H5.42067C3.88882 43.2022 2.60241 42.6748 1.56144 41.6201C0.520482 40.5794 0 39.2838 0 37.7334V25.356C0 23.809 0.520482 22.5082 1.56144 21.4534C2.60241 20.3987 3.89056 19.8748 5.42589 19.8819H26.8527C25.8152 18.9537 25.098 17.855 24.7011 16.5858C24.3042 15.3166 24.104 13.9806 24.1006 12.5778C24.1006 9.08308 25.3121 6.11398 27.7352 3.6705C30.1549 1.2235 33.095 0 36.5556 0C38.5574 0 40.3956 0.474633 42.0702 1.4239C43.7448 2.37317 45.1879 3.61073 46.3994 5.13659C47.611 3.59315 49.0523 2.35207 50.7234 1.41335C52.398 0.471117 54.2363 0 56.2381 0C59.6987 0 62.6406 1.2235 65.0637 3.6705C67.4833 6.11398 68.6931 9.08484 68.6931 12.5831C68.6931 13.9542 68.4894 15.2762 68.0821 16.5489C67.6748 17.8216 66.9611 18.9326 65.941 19.8819H88.5793C90.1112 19.8819 91.3976 20.4075 92.4386 21.4587C93.4795 22.5099 94 23.8108 94 25.3612V37.7281C94 39.275 93.4795 40.5759 92.4386 41.6306C91.3976 42.6854 90.1094 43.211 88.5741 43.2075H87.5714V91.483C87.5714 93.8245 86.7463 95.8285 85.0961 97.495C83.4424 99.165 81.4562 100 79.1376 100H14.8624C12.5438 100 10.5593 99.165 8.90911 97.495C7.25541 95.8285 6.42333 93.8245 6.42333 91.483ZM56.2381 5.27371C54.191 5.27371 52.4746 5.97511 51.089 7.37791C49.7034 8.78072 49.0106 10.514 49.0106 12.5778C49.0106 14.6416 49.7034 16.3766 51.089 17.7829C52.4746 19.1893 54.191 19.8889 56.2381 19.8819C58.2852 19.8748 60.0033 19.1752 61.3924 17.7829C62.7816 16.3907 63.4744 14.6556 63.4709 12.5778C63.4674 10.4999 62.7746 8.76666 61.3924 7.37791C60.0103 5.98917 58.2922 5.28777 56.2381 5.27371ZM29.3228 12.5778C29.3228 14.6486 30.0156 16.3836 31.4012 17.7829C32.7868 19.1822 34.505 19.8819 36.5556 19.8819C38.6062 19.8819 40.3243 19.1822 41.7099 17.7829C43.0955 16.3836 43.7883 14.6486 43.7883 12.5778C43.7883 10.507 43.0955 8.77369 41.7099 7.37791C40.3243 5.98214 38.6062 5.28074 36.5556 5.27371C34.505 5.26667 32.7868 5.96808 31.4012 7.37791C30.0156 8.78775 29.3228 10.521 29.3228 12.5778ZM5.22222 25.1556V37.9285H44.3889V25.1556H5.22222ZM44.3889 94.7263V43.2022H11.6456V91.483C11.6456 92.4287 11.9484 93.2057 12.5542 93.8139C13.16 94.4222 13.9294 94.7263 14.8624 94.7263H44.3889ZM49.6111 94.7263H79.1376C80.0776 94.7263 80.847 94.4222 81.4458 93.8139C82.0446 93.2057 82.3457 92.4287 82.3492 91.483V43.2022H49.6111V94.7263ZM88.7778 37.9285V25.1608H49.6111V37.9285H88.7778Z" fill="#3CADFF"/>
</svg>
