<svg width="117" height="100" viewBox="0 0 117 100" fill="none" xmlns="http://www.w3.org/2000/svg">
<path d="M85.0952 0C73.9265 0 64.215 5.03657 58.503 13.477C52.7909 5.03657 43.0794 0 31.9107 0C23.4505 0.00985302 15.3396 3.37503 9.35731 9.35731C3.37503 15.3396 0.00985302 23.4505 0 31.9107C0 47.4406 9.67958 63.6033 28.7728 79.9416C37.5219 87.3968 46.9726 93.987 56.9925 99.6199C57.4569 99.8694 57.9758 100 58.503 100C59.0301 100 59.549 99.8694 60.0134 99.6199C70.0333 93.987 79.484 87.3968 88.2331 79.9416C107.326 63.6033 117.006 47.4406 117.006 31.9107C116.996 23.4505 113.631 15.3396 107.649 9.35731C101.666 3.37503 93.5554 0.00985302 85.0952 0ZM58.503 93.1314C49.7754 88.0948 6.38214 61.5451 6.38214 31.9107C6.38918 25.1423 9.08105 18.6531 13.8671 13.8671C18.6531 9.08105 25.1423 6.38918 31.9107 6.38214C42.6965 6.38214 51.7538 12.142 55.5512 21.4174C55.7916 22.0027 56.2006 22.5033 56.7262 22.8556C57.2518 23.2079 57.8702 23.396 58.503 23.396C59.1357 23.396 59.7541 23.2079 60.2797 22.8556C60.8053 22.5033 61.2143 22.0027 61.4547 21.4174C65.2521 12.142 74.3094 6.38214 85.0952 6.38214C91.8636 6.38918 98.3528 9.08105 103.139 13.8671C107.925 18.6531 110.617 25.1423 110.624 31.9107C110.624 61.5451 67.2305 88.0948 58.503 93.1314Z" fill="#3CADFF"/>
</svg>
