<svg width="202" height="82" viewBox="0 0 202 82" fill="none" xmlns="http://www.w3.org/2000/svg">
<g clip-path="url(#clip0_23_406)">
<mask id="mask0_23_406" style="mask-type:luminance" maskUnits="userSpaceOnUse" x="0" y="0" width="72" height="82">
<path d="M0 0H72V82H0V0Z" fill="white"/>
</mask>
<g mask="url(#mask0_23_406)">
<path d="M13.4989 35.356C13.5953 35.5779 13.6794 36.0157 13.6477 36.5686C13.5744 37.8499 12.7032 38.7683 11.2004 38.6837C9.76568 38.6029 8.84853 37.5838 8.92925 36.1744C8.96168 35.6079 9.10453 35.2574 9.19502 35.1068L9.66968 35.2756C9.54814 35.4921 9.4484 35.8044 9.42678 36.1821C9.36576 37.2476 10.012 37.9944 11.2156 38.0621C12.3375 38.1253 13.095 37.5253 13.1583 36.4193C13.1788 36.0619 13.1248 35.6935 13.0227 35.451L13.4989 35.356Z" fill="white"/>
<path d="M10.0917 32.4719L9.76704 33.8187L9.27686 33.7024L10.0671 30.4242L10.5573 30.5405L10.2311 31.8938L14.2055 32.8362L14.0662 33.4143L10.0917 32.4719Z" fill="white"/>
<path d="M10.7172 28.6481L12.8736 28.5831C13.1696 28.5844 13.4567 28.5893 13.75 28.5969L13.7554 28.5844C13.5687 28.4165 13.3597 28.2317 13.1052 27.9981L11.6112 26.5882L11.8589 26.0174L13.6439 27.8162C14.1073 28.2861 14.6386 28.8217 14.9062 29.2816C15.1318 29.7015 15.1751 30.0802 15.0135 30.4525C14.9543 30.589 14.8987 30.683 14.844 30.7405L14.4241 30.4951C14.4554 30.457 14.4886 30.3976 14.529 30.3046C14.7112 29.8676 14.4024 29.4342 14.1587 29.1758C14.0837 29.0923 14.0158 29.078 13.8941 29.0849L10.4507 29.2624L10.7172 28.6481Z" fill="white"/>
<path d="M14.1247 24.8694C14.7437 25.2634 15.2285 25.6523 15.5758 26.066C15.7937 26.317 15.9744 26.6006 16.1072 26.8456L17.2035 25.1516L14.1656 23.2179L13.3967 24.406L14.1247 24.8694ZM14.0729 22.4607L17.5292 24.6607L17.7578 24.3326L19.0597 25.2095L18.8096 25.596L17.8589 25.0391L16.2955 27.4551L17.202 28.0803L16.9518 28.4668L15.6057 27.6581L15.7818 27.3609C15.6101 27.0509 15.4212 26.7301 15.1763 26.4457C14.8138 26.0304 14.3311 25.6509 13.6662 25.2277L12.686 24.6038L14.0729 22.4607Z" fill="white"/>
<path d="M18.7881 20.7278L17.5799 22.0302L18.7978 23.1415L20.1444 21.6901L20.5103 22.0239L18.7625 23.9079L15.3843 20.8253L17.0629 19.0159L17.4288 19.3497L16.1514 20.7267L17.219 21.7009L18.4272 20.3985L18.7881 20.7278Z" fill="white"/>
<path d="M18.8709 17.407L20.0344 18.9225L21.8009 17.5884L20.6374 16.0729L21.1142 15.7128L23.8952 19.335L23.4184 19.6951L22.1145 17.9969L20.348 19.3309L21.6519 21.0291L21.1804 21.3852L18.3994 17.763L18.8709 17.407Z" fill="white"/>
<path d="M23.3277 14.4329L23.9753 15.7279C24.2537 16.2846 24.7039 16.4553 25.2836 16.1702C25.5703 16.0291 25.8331 15.7793 25.9801 15.5411L25.0118 13.6046L25.5488 13.3405L27.5882 17.4193L27.0513 17.6833L26.1859 15.9526L26.1737 15.9586C25.9686 16.263 25.6723 16.5219 25.3123 16.6989C24.7692 16.966 23.983 17.0661 23.4838 16.0677L22.7969 14.694L23.3277 14.4329Z" fill="white"/>
<path d="M30.3718 14.295L28.6618 14.8009L29.135 16.3738L31.0407 15.8099L31.1829 16.2824L28.7093 17.0143L27.397 12.6517L29.7726 11.9488L29.9148 12.4213L28.1069 12.9562L28.5216 14.3349L30.2316 13.8289L30.3718 14.295Z" fill="white"/>
<path d="M35.2666 15.5537C35.0637 15.6873 34.6444 15.8474 34.09 15.9151C32.8057 16.0719 31.7392 15.3854 31.5554 13.9038C31.3798 12.4892 32.2275 11.4125 33.6402 11.2401C34.2081 11.1708 34.5813 11.2477 34.7468 11.3092L34.6639 11.8025C34.4275 11.7225 34.0998 11.6808 33.7213 11.727C32.6532 11.8574 32.0275 12.6211 32.1748 13.8077C32.312 14.9139 33.0424 15.5461 34.151 15.4108C34.5092 15.3671 34.8651 15.2488 35.0876 15.106L35.2666 15.5537Z" fill="white"/>
<path d="M37.0033 11.1861L36.9028 13.2033L37.0865 13.2123L38.7583 11.2721L39.4726 11.307L37.6342 13.3067C38.3842 13.4449 38.6539 13.918 38.8614 14.5436C39.0083 15.0174 39.1167 15.442 39.3006 15.8568L38.6612 15.8255C38.5134 15.5072 38.4043 15.0961 38.2996 14.7325C38.1187 14.1217 37.8466 13.6959 37.0712 13.6579L36.8807 13.6486L36.7769 15.7332L36.1919 15.7046L36.4183 11.1575L37.0033 11.1861Z" fill="white"/>
<path d="M41.634 11.6651L41.184 13.5308C41.0145 14.2338 40.8618 14.8087 40.6795 15.3906L40.6912 15.4003C41.0273 14.9938 41.4212 14.5803 41.8725 14.1317L43.8663 12.1946L44.4426 12.3313L43.3748 16.7592L42.8316 16.6303L43.2863 14.7449C43.459 14.0288 43.5924 13.5048 43.7734 12.9574L43.7551 12.9461C43.4193 13.3804 42.991 13.8206 42.5674 14.241L40.639 16.1102L40.0229 15.9641L41.0908 11.5362L41.634 11.6651Z" fill="white"/>
<path d="M47.5297 16.1775L45.896 15.4656L45.2303 16.9684L47.0511 17.7617L46.8511 18.2132L44.4878 17.1834L46.3343 13.0153L48.604 14.0043L48.404 14.4557L46.6768 13.7031L46.0932 15.0204L47.7269 15.7322L47.5297 16.1775Z" fill="white"/>
<path d="M50.83 17.9822C50.2201 18.744 50.0898 19.754 50.8205 20.3294C51.5566 20.9091 52.5105 20.5649 53.1585 19.7555C53.726 19.0467 53.9456 18.0121 53.1722 17.4031C52.4041 16.7982 51.4568 17.1993 50.83 17.9822ZM53.6661 20.1208C52.6836 21.3481 51.4106 21.4065 50.4932 20.684C49.5438 19.9363 49.4615 18.6813 50.3255 17.6022C51.2318 16.4702 52.5341 16.2882 53.4942 17.0443C54.4756 17.8171 54.5132 19.0629 53.6661 20.1208Z" fill="white"/>
<path d="M56.4307 20.574L55.5102 19.5329L55.8891 19.2033L58.1299 21.7375L57.751 22.067L56.8259 21.0209L53.7536 23.693L53.3584 23.2461L56.4307 20.574Z" fill="white"/>
<path d="M57.3463 24.5806C57.3861 24.7073 57.4613 24.8519 57.5662 25.0179C57.9458 25.619 58.4715 25.8025 59.0083 25.469C59.522 25.1499 59.5425 24.6351 59.1954 24.0856C59.058 23.868 58.9359 23.7128 58.8585 23.6412L57.3463 24.5806ZM58.9077 22.9173C59.0999 23.1327 59.3334 23.426 59.5864 23.8267C59.8974 24.319 60.0097 24.7514 59.9465 25.1094C59.8955 25.436 59.6923 25.7376 59.3459 25.9527C58.9938 26.1714 58.6517 26.2405 58.3268 26.1713C57.8776 26.0837 57.4622 25.744 57.1549 25.2574C57.0609 25.1086 56.9799 24.9676 56.9364 24.8352L55.378 25.8033L55.0635 25.3052L58.9077 22.9173Z" fill="white"/>
<path d="M61.5833 28.8802C61.5632 28.7788 61.5219 28.5911 61.4206 28.3476C61.197 27.8107 60.7995 27.4399 60.2141 27.6797C59.7041 27.8885 59.5954 28.4592 59.8423 29.0523C59.9177 29.2334 59.9905 29.4082 60.041 29.5117L61.5833 28.8802ZM56.8323 28.1583C56.9716 28.1744 57.1272 28.1764 57.2865 28.1696C57.8466 28.1522 58.4851 28.0223 58.9743 28.2239C59.1166 28.2825 59.2441 28.3765 59.3339 28.4859L59.3528 28.4781C59.2252 27.9238 59.4314 27.3571 60.0105 27.12C60.382 26.9679 60.7402 26.9966 61.0341 27.1539C61.3573 27.3285 61.6422 27.6941 61.8631 28.2248C62.0113 28.5807 62.1358 28.9682 62.1935 29.2661L58.0071 30.9803L57.781 30.4372L59.6192 29.6845L59.4529 29.2849C59.3437 29.0226 59.2064 28.8523 58.993 28.7643C58.5776 28.5983 57.9049 28.7349 57.4396 28.75C57.3144 28.7501 57.2133 28.755 57.074 28.739L56.8323 28.1583Z" fill="white"/>
<path d="M61.7822 32.522C61.0626 32.6734 60.4422 32.7349 59.9019 32.6829C59.569 32.6563 59.2395 32.5807 58.9713 32.499L59.3926 34.468L62.9238 33.7249L62.6283 32.3439L61.7822 32.522ZM63.5265 34.1988L59.509 35.0443L59.5791 35.437L58.0315 35.7212L57.9354 35.2719L59.0063 35.0051L58.4054 32.1969L57.3176 32.3844L57.2214 31.935L58.752 31.5715L58.8375 31.9057C59.1793 32.0064 59.5411 32.1029 59.9168 32.1343C60.469 32.1769 61.0813 32.1102 61.8542 31.9475L62.9935 31.7078L63.5265 34.1988Z" fill="white"/>
<path d="M59.6766 36.9822C59.6495 37.1038 59.6428 37.2524 59.6429 37.4551C59.6434 38.1035 59.9776 38.6639 60.6723 38.6634C61.3874 38.6628 61.6594 38.0547 61.6589 37.4468C61.6587 37.2306 61.6382 37.055 61.6245 36.9807L59.6766 36.9822ZM63.8133 40.3767L59.2229 40.3801L59.2224 39.7857L63.8129 39.7823L63.8133 40.3767ZM63.8107 36.9791L62.0944 36.9804C62.1149 37.1155 62.1288 37.3721 62.1289 37.5207C62.1296 38.4596 61.7148 39.2772 60.6932 39.278C60.2709 39.2784 59.9575 39.1435 59.719 38.9275C59.3237 38.5563 59.1801 37.9215 59.1797 37.3068C59.1793 36.9015 59.2064 36.5908 59.2335 36.3949L63.8103 36.3914L63.8107 36.9791Z" fill="white"/>
<path d="M22.8191 60.9349C22.6691 60.9188 22.4056 60.8303 22.1148 60.6448C21.441 60.2151 21.2076 59.4696 21.7115 58.6923C22.1927 57.9502 23.026 57.7707 23.7672 58.2434C24.0651 58.4334 24.212 58.6166 24.2662 58.7108L24.0298 58.913C23.9492 58.7821 23.8099 58.6336 23.6113 58.5069C23.051 58.1496 22.4483 58.2673 22.0447 58.8899C21.6684 59.4702 21.7635 60.0579 22.3451 60.4288C22.5331 60.5487 22.7497 60.6321 22.9126 60.6515L22.8191 60.9349Z" fill="white"/>
<path d="M25.5661 60.9722L24.5805 60.4775L24.1179 61.384L25.2163 61.9354L25.0773 62.2077L23.6516 61.4921L24.9348 58.9776L26.3041 59.6648L26.1651 59.9372L25.1231 59.4142L24.7176 60.2088L25.7032 60.7035L25.5661 60.9722Z" fill="white"/>
<path d="M26.9418 61.229L27.2525 61.348C27.6144 61.4865 27.8997 61.3806 27.9984 61.127C28.1184 60.8189 27.9294 60.6076 27.5833 60.475C27.426 60.4148 27.3309 60.3919 27.2713 60.3825L26.9418 61.229ZM26.4513 62.489C26.5136 62.5264 26.6105 62.5679 26.7324 62.6146C27.0864 62.7501 27.463 62.7464 27.6118 62.3641C27.7515 62.0052 27.4985 61.738 27.1248 61.5949L26.8416 61.4865L26.4513 62.489ZM27.0187 60.0213C27.1803 60.0473 27.4254 60.1143 27.6653 60.2061C28.0076 60.3372 28.2051 60.48 28.3186 60.6759C28.4168 60.83 28.4387 61.0177 28.3582 61.2245C28.2595 61.478 28.0038 61.6356 27.6851 61.6301L27.682 61.6379C27.9095 61.7967 28.124 62.1164 27.9722 62.5065C27.8841 62.7328 27.7268 62.8698 27.543 62.9473C27.2928 63.0443 26.9635 63.0079 26.5308 62.8422C26.2948 62.7519 26.1199 62.667 26.012 62.6077L27.0187 60.0213Z" fill="white"/>
<path d="M30.3295 62.7985L30.2697 61.9437C30.256 61.7497 30.2584 61.5773 30.2597 61.409L30.2515 61.4069C30.1676 61.5579 30.0786 61.7118 29.9814 61.8637L29.5021 62.5814L30.3295 62.7985ZM29.3554 62.837L28.8415 63.6192L28.4746 63.523L30.1348 61.0432L30.5628 61.1554L30.7736 64.1261L30.3945 64.0266L30.3296 63.0926L29.3554 62.837Z" fill="white"/>
<path d="M33.649 64.4956C33.5056 64.5418 33.2287 64.5682 32.8868 64.5172C32.0947 64.399 31.5737 63.8139 31.7122 62.9001C31.8446 62.0276 32.5305 61.5252 33.4018 61.6552C33.7521 61.7074 33.9618 61.8148 34.0501 61.8787L33.918 62.1593C33.7905 62.0726 33.6021 61.9937 33.3686 61.9589C32.7098 61.8606 32.2087 62.213 32.0977 62.9449C31.9943 63.6272 32.3239 64.1245 33.0077 64.2265C33.2286 64.2595 33.4607 64.2476 33.6173 64.1991L33.649 64.4956Z" fill="white"/>
<path d="M35.4392 62.1942L34.5757 62.1579L34.5889 61.8488L36.6909 61.937L36.6777 62.2462L35.81 62.2098L35.7029 64.7164L35.3322 64.7008L35.4392 62.1942Z" fill="white"/>
<path d="M37.4264 63.3459C37.465 63.9469 37.8279 64.4644 38.4043 64.428C38.985 64.3912 39.2791 63.8405 39.2381 63.202C39.2021 62.6427 38.8699 62.0772 38.2598 62.1158C37.6539 62.1541 37.3866 62.7283 37.4264 63.3459ZM39.6241 63.1608C39.6864 64.129 39.1261 64.6798 38.4024 64.7256C37.6534 64.773 37.0904 64.2304 37.0356 63.3791C36.9781 62.486 37.5001 61.8663 38.2576 61.8184C39.0318 61.7694 39.5704 62.3261 39.6241 63.1608Z" fill="white"/>
<path d="M42.2554 61.298L42.7869 64.0666L42.4265 64.1347L41.9526 61.6659L40.6562 61.9107L41.1301 64.3795L40.7698 64.4475L40.2383 61.6789L42.2554 61.298Z" fill="white"/>
<path d="M43.7582 62.3781C43.9449 62.9511 44.425 63.364 44.9746 63.1879C45.5283 63.0105 45.6766 62.4049 45.4782 61.7961C45.3045 61.263 44.8422 60.796 44.2604 60.9824C43.6827 61.1675 43.5663 61.7893 43.7582 62.3781ZM45.8421 61.6619C46.1429 62.585 45.7366 63.2557 45.0466 63.4768C44.3325 63.7057 43.6521 63.3173 43.3877 62.5056C43.1102 61.6542 43.4623 60.9262 44.1845 60.6947C44.9226 60.4582 45.5828 60.8662 45.8421 61.6619Z" fill="white"/>
<path d="M47.753 59.3016L48.9422 61.8613L48.6052 62.0153L47.5448 59.7328L46.6909 60.123L47.0508 60.8978C47.3084 61.4523 47.573 62.0818 47.3222 62.4911C47.2547 62.5956 47.1336 62.7246 46.9842 62.7928L46.8186 62.5462C46.9132 62.48 46.9921 62.3703 47.027 62.2853C47.1402 61.9895 46.9282 61.4833 46.7377 61.0731L46.2366 59.9945L47.753 59.3016Z" fill="white"/>
<path d="M50.1634 60.8773C50.2444 60.8487 50.3262 60.8051 50.4348 60.7407C50.7857 60.5324 50.9843 60.1856 50.7613 59.816C50.5318 59.4356 50.1377 59.4746 49.7904 59.6807C49.7108 59.7279 49.6174 59.7931 49.5443 59.8511L50.1634 60.8773ZM48.8494 58.6992L49.3949 59.6035C49.4608 59.5498 49.6012 59.4567 49.6844 59.4073C50.1837 59.1111 50.7572 59.068 51.0797 59.6027C51.2161 59.8287 51.2433 60.0367 51.2033 60.231C51.1298 60.5572 50.8352 60.8344 50.4987 61.034C50.278 61.165 50.1029 61.2494 49.9894 61.2973L48.5347 58.886L48.8494 58.6992Z" fill="white"/>
<path d="M33.624 38.9912C33.63 38.8631 33.6365 38.7345 33.6434 38.6052C33.6528 38.4287 33.6629 38.2535 33.6737 38.0796C33.4317 38.2931 33.1898 38.5066 32.9478 38.7201C33.1732 38.8105 33.3986 38.9008 33.624 38.9912ZM39.3708 37.7182C39.3855 38.1635 39.4002 38.6088 39.4149 39.0541L40.5553 38.166C40.1604 38.0168 39.7656 37.8675 39.3708 37.7182ZM46.5384 53.038C46.6963 53.1977 46.815 53.3829 47.0169 53.4652C47.4646 53.2314 48.0905 52.7458 48.255 52.5086C48.0453 52.2843 47.5578 51.9564 47.0529 51.7058C46.99 51.6745 46.9171 51.6629 46.8243 51.6349C46.7275 52.1099 46.6367 52.5553 46.5384 53.038ZM23.6679 50.7285C23.6023 50.9159 23.5797 51.0745 23.5714 51.1829C23.5559 51.3832 23.5845 51.4706 23.5953 51.5005C23.6425 51.6311 23.7295 51.7098 23.7677 51.7446C24.2705 52.2034 24.9899 52.9668 25.9296 53.4739C25.9742 53.498 26.043 53.5342 26.1402 53.5664C26.4822 53.6795 26.8073 53.6198 27.0242 53.553C26.9292 53.1304 26.8377 52.7232 26.7395 52.2863C25.6642 51.9101 24.6661 51.3617 23.6679 50.7285ZM30.0297 22.6683C30.0247 23.1467 30.2112 23.9943 30.4831 24.7155C30.6259 25.0944 30.7605 25.4794 30.9997 25.8004C31.0386 25.8004 31.0561 25.8059 31.0636 25.7996C31.4769 25.4534 31.8896 25.1065 32.3011 24.7582C32.3192 24.7429 32.3257 24.7142 32.3483 24.6712C32.1066 24.2482 31.8978 23.7962 31.7708 23.3102C31.6411 22.8139 31.6468 22.3035 31.625 21.776C31.5484 21.7857 31.4939 21.7793 31.4529 21.7997C30.9566 22.0469 30.4778 22.3225 30.0297 22.6683ZM49.1954 51.7244C49.4613 51.5281 49.659 51.3086 49.861 51.0955C49.9176 51.0358 49.9605 50.9392 49.9633 50.858C49.973 50.5773 49.9629 50.2959 49.9588 50.0148C49.9574 49.9144 49.8994 49.8496 49.8137 49.8059C49.7679 49.7826 49.7216 49.76 49.6744 49.7395C48.7863 49.3543 47.8675 49.0683 46.9114 48.9052C46.8549 48.8955 46.7937 48.913 46.718 48.9192C46.7258 49.0069 46.7299 49.0684 46.7369 49.1296C46.7719 49.434 46.8275 49.7378 46.8368 50.043C46.8441 50.2822 46.9454 50.4094 47.1554 50.5075C47.7861 50.8024 48.3754 51.1689 48.9431 51.5699C49.0154 51.621 49.0942 51.6628 49.1954 51.7244ZM32.9116 35.3156C32.5706 35.5326 32.251 35.7466 31.9207 35.943C31.6005 36.1334 31.2691 36.305 30.9432 36.4861C30.6102 36.6711 30.2403 36.7846 29.8846 36.9969C29.9652 37.0714 30.0129 37.1323 30.075 37.1703C30.568 37.4721 31.0661 37.7658 31.5573 38.0705C31.7257 38.175 31.8632 38.1591 32.0139 38.0393C32.3054 37.8074 32.6261 37.61 32.8992 37.3571C33.0721 37.197 33.3292 36.9761 33.6774 36.7364C33.6856 36.5228 33.7034 36.2952 33.7348 36.0558C33.7483 35.9525 33.7636 35.8521 33.7804 35.7549C33.508 35.5751 33.2229 35.4607 32.9116 35.3156ZM43.6514 39.8372C43.5918 39.7882 43.5475 39.7413 43.4942 39.7095C43.0194 39.4273 42.5401 39.1525 42.0686 38.8652C41.8857 38.7537 41.7378 38.7781 41.5768 38.9038C41.0606 39.3067 40.5305 39.6924 40.0227 40.1053C39.5844 40.4618 39.6078 40.3169 39.6549 41.0139C39.6573 41.0495 39.6815 41.0837 39.7061 41.1449C40.0108 41.2947 40.3311 41.4523 40.6634 41.6157C41.6073 40.9881 42.5737 40.4298 43.577 39.9355C43.5973 39.9255 43.6078 39.8962 43.6514 39.8372ZM26.2422 30.4337C26.1292 31.07 26.3447 32.316 26.669 32.9746C27.3643 33.1331 28.0824 33.1309 28.8014 33.0484C29.181 33.0048 29.5662 32.9677 29.9458 32.7921C29.8555 32.604 29.7711 32.4344 29.6922 32.2624C29.6131 32.0898 29.5394 31.9147 29.4641 31.7426C28.3002 31.5263 27.2595 31.0625 26.2422 30.4337ZM29.3712 29.2499C29.3302 29.2037 29.316 29.181 29.2959 29.1659C28.4367 28.5211 27.6787 27.7766 27.0371 26.9164C27.0029 26.8705 26.9425 26.8438 26.8921 26.8066C26.5995 27.3166 26.2748 28.6019 26.3082 29.1394C26.535 29.2903 26.7762 29.4599 27.0264 29.6154C27.6302 29.9906 28.2733 30.2823 28.9577 30.4815C29.0531 30.5092 29.1524 30.5495 29.2608 30.4749C29.2971 30.0716 29.3336 29.6663 29.3712 29.2499ZM27.2723 34.2176C27.318 34.3259 27.3404 34.41 27.3852 34.48C27.739 35.0337 28.1598 35.534 28.63 35.9938C28.6484 36.0118 28.6683 36.0283 28.6861 36.0467C28.7782 36.1418 28.8867 36.1516 29.0059 36.1085C29.0664 36.0866 29.1276 36.0666 29.188 36.0444C30.0253 35.7362 30.8162 35.3355 31.569 34.8603C31.6432 34.8134 31.7088 34.753 31.7779 34.6992C31.6544 34.5311 31.122 34.0722 30.71 33.7771C30.503 33.8315 30.2811 33.894 30.057 33.9475C29.8317 34.0013 29.6057 34.0543 29.3774 34.0926C29.1491 34.1309 28.9181 34.1574 28.6872 34.1764C28.456 34.1955 28.2235 34.1991 27.9915 34.209C27.7649 34.2188 27.5357 34.1679 27.2723 34.2176ZM7.44804 43.7536C7.33349 42.8907 7.19641 42.0363 7.11258 41.1768C7.02711 40.3004 6.99399 39.419 6.93827 38.5446C6.66171 38.4695 5.74173 38.4447 4.84798 38.4867C4.78737 38.4895 4.7163 38.4793 4.66992 38.5774C4.66992 38.7031 4.7576 38.8183 4.82127 38.9399C5.26683 39.7912 5.71462 40.6414 6.16197 41.4917C6.51987 42.1721 6.87678 42.8529 7.23803 43.5315C7.28313 43.6162 7.3003 43.7339 7.44804 43.7536ZM65.5538 43.771C65.7003 43.6977 65.7319 43.582 65.7832 43.4846C66.3084 42.488 66.8316 41.4903 67.3561 40.4933C67.6483 39.9382 67.9443 39.3851 68.2324 38.8279C68.2809 38.734 68.3754 38.6383 68.2909 38.5035C67.9225 38.4628 67.549 38.482 67.1768 38.4867C66.809 38.4913 66.437 38.4421 66.065 38.5244C65.9842 38.8816 66.0193 39.2282 65.9954 39.5703C65.9704 39.9271 65.956 40.2848 65.9289 40.6415C65.9026 40.9855 65.872 41.3294 65.8322 41.672C65.791 42.0273 65.7278 42.3801 65.6906 42.7357C65.6555 43.0706 65.5484 43.3977 65.5538 43.771ZM42.8977 22.5489C42.8368 22.4892 42.7981 22.4382 42.7478 22.4039C42.1827 22.0193 41.5785 21.7072 40.9465 21.4452C40.7918 21.3811 40.6791 21.4184 40.5611 21.5204C39.8083 22.1714 39.1538 22.9071 38.6101 23.7385C38.5793 23.7856 38.5763 23.8506 38.5575 23.9175C39.0068 24.0591 39.4335 24.1935 39.8606 24.3281C40.1815 24.1018 40.4876 23.8693 40.8107 23.6626C41.1459 23.4482 41.4958 23.2562 41.8422 23.0593C42.1751 22.8701 42.5496 22.7615 42.8977 22.5489ZM52.1535 65.9083C52.2965 65.8402 52.3485 65.7011 52.425 65.587C53.196 64.4377 53.9632 63.2857 54.7311 62.1343C54.9586 61.7932 55.1857 61.4518 55.4117 61.1097C55.4455 61.0584 55.4901 61.0035 55.4044 60.9276C55.3069 61.0008 55.2054 61.0761 55.1049 61.1527C54.686 61.4719 54.2721 61.798 53.8475 62.1097C53.0285 62.7109 52.1715 63.2552 51.2933 63.7672C51.1974 63.8232 51.0718 63.8527 51.0432 64.0183C51.376 64.6133 51.719 65.2277 52.0648 65.8406C52.0815 65.8703 52.1234 65.8861 52.1535 65.9083ZM17.5454 60.941C17.6744 61.2771 19.987 64.7847 20.7011 65.7796C20.7372 65.8298 20.7835 65.8726 20.8397 65.9353C20.8932 65.8736 20.943 65.8329 20.9717 65.7808C21.3046 65.1775 21.6552 64.5833 21.985 63.9371C21.6635 63.7322 21.3478 63.5633 21.0462 63.373C20.7414 63.1807 20.4355 62.9901 20.1352 62.7913C19.8455 62.5996 19.5593 62.4024 19.277 62.2003C18.9841 61.9907 18.7 61.769 18.4077 61.5586C18.1208 61.3519 17.8728 61.092 17.5454 60.941ZM64.8504 52.9915C64.9133 52.8872 64.9712 52.8043 65.0159 52.7148C65.1876 52.3705 65.3608 52.0267 65.5233 51.6781C67.1826 48.117 68.129 44.3749 68.4049 40.4641C68.4319 40.0809 68.4354 39.696 68.4475 39.3118C68.4493 39.2517 68.4555 39.1805 68.342 39.1736C68.2837 39.2762 68.2179 39.3849 68.1589 39.497C67.2386 41.245 66.3193 42.9936 65.3987 44.7414C65.3341 44.864 65.2874 45.0005 65.1614 45.0939C64.9955 45.0579 64.8324 45.0241 64.67 44.9871C63.5641 44.735 62.4584 44.4818 61.3522 44.2311C61.2814 44.215 61.2065 44.2168 61.1155 44.2087C60.9785 44.6944 60.8555 45.1639 60.7128 45.6275C60.5695 46.0925 60.4171 46.5553 60.2494 47.0121C60.0816 47.4689 59.8981 47.9206 59.7064 48.3682C59.5158 48.8132 59.3064 49.2504 59.1003 49.7016C59.1785 49.7602 59.2355 49.8104 59.2993 49.8498C60.4111 50.5368 64.4885 52.8487 64.8504 52.9915ZM13.9043 49.7254C13.7276 49.3478 13.5544 48.9915 13.3934 48.6298C13.2371 48.2788 13.0866 47.9248 12.9461 47.5673C12.801 47.1979 12.6642 46.8248 12.5366 46.4491C12.4131 46.0856 12.3119 45.7146 12.1898 45.3505C12.0646 44.9773 12.0202 44.5793 11.8469 44.2011C11.7091 44.2238 11.5826 44.2377 11.4595 44.2659C10.3169 44.5274 9.17485 44.7916 8.03237 45.0538C7.95961 45.0705 7.88441 45.0766 7.79475 45.09C7.71998 44.9582 7.64774 44.8384 7.58272 44.7149C6.89611 43.4103 6.21094 42.1049 5.5248 40.8001C5.26225 40.3008 4.99939 39.8017 4.73356 39.3042C4.70149 39.2441 4.68175 39.1484 4.559 39.1957C4.55314 39.2392 4.5392 39.2886 4.54119 39.3374C4.54949 39.542 4.56733 39.7463 4.57312 39.9509C4.60035 40.9121 4.70612 41.8667 4.84006 42.8172C5.02945 44.1613 5.3078 45.4887 5.6726 46.7976C6.24502 48.8514 7.01334 50.8298 7.98975 52.7281C8.04112 52.828 8.06772 52.9483 8.20595 53.0133C8.26205 52.9891 8.33338 52.9642 8.39916 52.9291C9.5525 52.3136 13.5994 49.9622 13.9043 49.7254ZM19.2919 56.834C19.0181 56.5552 18.7838 56.3182 18.5512 56.0796C18.3088 55.8309 18.0637 55.5847 17.8278 55.3301C17.6006 55.085 17.3799 54.8336 17.1633 54.5792C16.9467 54.3248 16.7342 54.0666 16.528 53.8038C16.314 53.5309 16.1135 53.2476 15.9 52.9742C15.6967 52.7139 15.5502 52.4103 15.3129 52.1831C14.963 52.3123 11.07 54.5092 9.78324 55.3016C9.71972 55.3407 9.66366 55.3918 9.61116 55.4319C9.62286 55.6039 9.72867 55.707 9.80517 55.8219C10.9476 57.5366 12.2339 59.135 13.6905 60.6C15.1736 62.0918 16.7746 63.4413 18.5188 64.6219C19.0198 64.9609 19.5384 65.2743 20.0504 65.5971C20.1107 65.6351 20.1739 65.6999 20.2682 65.6186C20.2272 65.4878 20.1358 65.3794 20.0587 65.2639C18.9683 63.6297 17.8772 61.996 16.7873 60.3614C16.6957 60.2241 16.6117 60.0818 16.509 59.9175C17.438 58.8843 18.3705 57.8774 19.2919 56.834ZM32.1353 20.4091C31.9631 20.372 31.8305 20.4175 31.696 20.4536C27.6613 21.537 24.3503 23.7116 21.7492 26.953C21.1773 27.6656 20.6661 28.4205 20.2163 29.2152C20.1557 29.3223 20.0519 29.419 20.0957 29.5794C20.1541 29.588 20.216 29.605 20.2779 29.6049C22.2926 29.6029 24.3073 29.5993 26.3219 29.5937C26.3397 29.5937 26.3573 29.5639 26.3916 29.533C26.3074 29.3895 26.1273 29.3404 26.0229 29.1847C26.0229 29.1416 26.0152 29.0774 26.0241 29.0156C26.1527 28.1241 26.387 27.261 26.7433 26.4319C26.7657 26.3797 26.8127 26.3379 26.8682 26.2649C27.2643 26.8312 27.6641 27.3484 28.1192 27.8211C28.5832 28.303 29.1041 28.7206 29.6083 29.0973C29.6714 29.3145 29.5498 29.4932 29.6426 29.6896C29.7673 29.6964 29.8943 29.7088 30.0213 29.7094C30.4992 29.7119 30.9771 29.7105 31.455 29.7105C32.1396 29.7105 32.8241 29.712 33.5087 29.7089C33.6467 29.7083 33.7925 29.7334 33.912 29.651C33.9838 29.281 34.0862 26.4133 34.04 26.117C33.7985 25.9279 33.5445 25.7502 33.3164 25.5444C33.0802 25.3312 32.8691 25.0907 32.6305 24.845C32.4708 24.9585 32.3225 25.058 32.1811 25.1662C32.038 25.2756 31.8989 25.3906 31.763 25.5088C31.6271 25.627 31.499 25.7539 31.3644 25.8736C31.2338 25.9898 31.1341 26.1415 30.9813 26.2338C30.4137 25.5364 29.7619 23.5534 29.7702 22.5648C30.0786 22.3082 30.4255 22.0866 30.785 21.886C31.1435 21.686 31.5112 21.5021 31.8701 21.3136C31.9596 21.0083 32.0448 20.7177 32.1353 20.4091ZM63.4525 55.4191C63.3061 55.3267 63.2021 55.2554 63.093 55.1928C62.0205 54.5777 60.9471 53.9642 59.8741 53.3498C59.2482 52.9915 58.6236 52.6309 57.996 52.2756C57.8996 52.2211 57.8099 52.1291 57.6528 52.1767C57.6048 52.2416 57.5435 52.3223 57.4844 52.4046C57.2372 52.7488 56.9974 53.0984 56.7426 53.4369C55.9377 54.5066 55.0464 55.5012 54.0799 56.4298C53.9624 56.5427 53.8232 56.6404 53.7364 56.8158C54.0332 57.1744 54.3488 57.5106 54.654 57.8554C54.9521 58.1923 55.2529 58.5269 55.5524 58.8626C55.8593 59.2066 56.166 59.5507 56.4566 59.8766C56.4437 60.0635 56.3381 60.167 56.2615 60.2821C55.4362 61.5216 54.608 62.7591 53.7805 63.9972C53.4667 64.4668 53.1516 64.9356 52.8407 65.4072C52.7963 65.4746 52.718 65.5411 52.7685 65.6424C53.2672 65.4992 55.343 64.0818 56.7137 62.9587C59.3412 60.8058 61.5956 58.326 63.4525 55.4191ZM52.9136 29.6204C52.9198 29.5668 52.9329 29.5373 52.9239 29.518C52.8753 29.4139 52.8259 29.3096 52.7684 29.2102C51.3095 26.6884 49.3656 24.6126 46.9364 22.9869C45.11 21.7646 43.1242 20.8949 40.9848 20.3713C40.8617 20.3412 40.74 20.2901 40.5886 20.354C40.6654 20.5887 40.733 20.8201 40.8197 21.0442C40.8441 21.1072 40.9181 21.1595 40.9812 21.1975C41.0574 21.2436 41.1468 21.2682 41.2295 21.3042C41.8938 21.5933 42.5243 21.9422 43.113 22.3634C43.2155 22.4367 43.3116 22.5188 43.4173 22.6021C43.3774 22.6385 43.3615 22.6621 43.3394 22.6717C43.2451 22.7124 43.1494 22.7503 43.0533 22.7869C42.2057 23.1098 41.407 23.5239 40.6654 24.0448C40.5384 24.1339 40.4182 24.2258 40.3435 24.3694C40.0656 24.9045 39.6475 25.3197 39.1805 25.692C39.091 25.7633 39.0027 25.8362 38.9 25.9196C38.9436 27.1009 38.9861 28.2784 39.0329 29.4557C39.0353 29.5141 39.0752 29.571 39.0945 29.6207C39.4397 29.6737 52.5753 29.6734 52.9136 29.6204ZM36.7448 77.1634C36.8945 77.0013 36.9806 76.9092 37.0654 76.8161C37.429 76.4168 37.7822 76.0076 38.1575 75.6194C39.3968 74.3375 40.7837 73.2314 42.2741 72.2504C44.0417 71.087 45.9202 70.1169 47.7896 69.1311C47.8317 69.1089 47.8832 69.1042 47.9505 69.0858C47.9949 69.2216 48.0379 69.34 48.0725 69.4607C48.2316 70.0147 48.387 70.5697 48.5471 71.1234C48.5778 71.2294 48.5882 71.3489 48.7043 71.4336C48.875 71.3707 49.0051 71.2444 49.1446 71.1361C51.0795 69.6343 52.9281 68.0345 54.6735 66.3187C55.7938 65.2174 56.8628 64.0693 57.8385 62.8385C58.078 62.5364 58.3059 62.2253 58.5364 61.9164C58.5711 61.87 58.6224 61.8164 58.547 61.7417C58.3827 61.8197 58.2697 61.9638 58.1388 62.0821C56.3839 63.6668 54.4782 65.0454 52.4164 66.2108C52.3085 66.2719 52.2114 66.367 52.0487 66.3556C51.9951 66.2665 51.9336 66.1706 51.8783 66.0714C51.5531 65.4887 51.2304 64.9047 50.904 64.3227C50.8558 64.2367 50.8284 64.1275 50.6836 64.0933C50.5982 64.1351 50.4942 64.1826 50.3933 64.2358C47.427 65.7994 44.2889 66.8482 40.9642 67.3423C39.9165 67.4981 38.8659 67.6161 37.8061 67.6434C37.535 67.6504 37.2639 67.6614 36.9932 67.6778C36.9068 67.683 36.8218 67.7112 36.7442 67.7273C36.6842 68.0613 36.6497 75.794 36.7009 76.8929C36.7037 76.9521 36.7195 77.0107 36.7448 77.1634ZM25.0317 69.0822C25.13 69.1189 25.1916 69.135 25.2466 69.1637C25.6122 69.3545 25.9762 69.5482 26.3409 69.7406C27.7776 70.4983 29.2016 71.2775 30.5655 72.1607C32.668 73.5222 34.5397 75.1401 36.1287 77.0735C36.1776 77.133 36.2245 77.1953 36.2803 77.248C36.3114 77.2774 36.359 77.2896 36.4101 77.315C36.4318 77.2531 36.4543 77.2189 36.4544 77.1847C36.4566 74.0836 36.4572 70.9826 36.4561 67.8815C36.4561 67.833 36.4339 67.7845 36.4244 67.7455C36.2986 67.6547 36.1651 67.6776 36.0387 67.6708C35.3686 67.6344 34.698 67.605 34.028 67.5658C33.2027 67.5174 32.3863 67.3973 31.571 67.264C29.6808 66.9551 27.8436 66.4544 26.0526 65.7838C24.8679 65.3402 23.7186 64.8188 22.6006 64.2291C22.4904 64.171 22.3908 64.0733 22.2124 64.109C21.777 64.8354 21.3888 65.6143 20.9486 66.349C20.7658 66.3487 20.6573 66.2481 20.5373 66.1799C18.5357 65.0416 16.6768 63.7077 14.9644 62.1733C14.8207 62.0445 14.6782 61.9142 14.532 61.7881C14.4971 61.7581 14.4548 61.7155 14.3971 61.7647C14.3971 61.7863 14.3879 61.8156 14.3987 61.8324C14.4607 61.9297 14.5244 62.0262 14.5932 62.1189C15.6137 63.4944 16.7539 64.7674 17.9628 65.9809C19.5443 67.5685 21.2227 69.0497 22.9698 70.455C23.341 70.7535 23.7177 71.0452 24.0944 71.3369C24.1619 71.3892 24.2311 71.464 24.3653 71.3867C24.5781 70.6507 24.7981 69.8899 25.0317 69.0822ZM46.9237 53.8422C46.7459 53.5223 46.4478 53.362 46.2579 53.1081C46.3293 52.8008 46.4031 52.5031 46.4667 52.2033C46.5323 51.8942 46.5416 51.5749 46.6106 51.2695C46.7738 51.2449 46.8802 51.3308 46.9853 51.3933C47.4611 51.6761 47.9306 51.9694 48.4029 52.258C48.5108 52.324 48.5973 52.4298 48.7517 52.4405C48.9062 52.3477 49.057 52.2393 49.1576 52.041C48.7672 51.7234 48.3624 51.4517 47.9395 51.2085C47.5169 50.9654 47.0835 50.7407 46.6451 50.5027C46.6142 50.1854 46.5833 49.8675 46.5525 49.5496C46.5223 49.2383 46.398 48.9373 46.4242 48.5938C47.0047 48.6362 47.5416 48.7662 48.0727 48.9132C48.7924 49.1123 49.4958 49.3589 50.1659 49.7088C50.182 49.8626 50.2 50.0014 50.2102 50.1408C50.2195 50.2685 50.2224 50.3967 50.2246 50.5248C50.2285 50.757 50.2274 50.757 50.3087 50.9182C50.4344 50.868 50.5032 50.7559 50.5861 50.6627C51.2109 49.9601 51.779 49.2144 52.2858 48.4238C54.2344 45.3842 55.205 42.059 55.2339 38.4601C55.2397 37.7415 55.1742 37.0274 55.0943 36.3141C54.993 35.4093 54.8286 34.5159 54.6047 33.6334C54.5774 33.5258 54.5268 33.4241 54.4853 33.3151C54.3722 33.323 54.2814 33.3198 54.1945 33.3368C49.2861 34.2988 44.3779 35.2623 39.47 36.2273C39.4226 36.2367 39.3794 36.268 39.3194 36.296C39.2959 36.6187 39.3183 36.9373 39.333 37.2555C39.3368 37.338 39.3875 37.3975 39.4649 37.4298C39.5481 37.4646 39.6328 37.4958 39.7162 37.5303C40.0973 37.6879 40.4789 37.8444 40.8585 38.0057C40.9377 38.0393 41.0088 38.0917 41.0975 38.1435C40.9865 38.2377 40.8728 38.3318 40.756 38.4257C40.3066 38.7874 39.8606 39.1084 39.426 39.3936C39.4352 39.6746 39.4444 39.9557 39.4536 40.2367C39.6257 40.1082 39.7589 40.0029 39.8347 39.9421C40.4073 39.4836 41.0021 39.053 41.583 38.6049C41.7345 38.488 41.8726 38.4838 42.0436 38.5758C42.7139 38.9364 43.3689 39.321 43.9963 39.7511C44.0572 39.7929 44.1096 39.8469 44.1839 39.9107C44.0921 39.9611 44.0272 39.999 43.9603 40.0331C43.4667 40.2846 42.9628 40.518 42.4817 40.791C41.9331 41.1023 41.4024 41.445 40.8693 41.7825C40.7344 41.8679 40.6222 41.8868 40.4776 41.8056C40.2534 41.6796 40.0199 41.569 39.7865 41.46C39.7102 41.4244 39.6219 41.4142 39.5289 41.3897C39.5305 41.8107 39.536 42.4429 39.5545 43.2122C39.5683 43.7843 39.5814 43.954 39.6546 45.8624C39.6983 47.0017 39.743 48.141 39.7869 49.2803C39.7953 49.498 39.8012 49.7157 39.8103 49.9334C39.8491 50.8549 39.8922 51.7763 39.9269 52.6981C39.9668 53.7607 39.9986 54.8236 40.0362 55.8864C40.0425 56.0655 40.0576 56.2445 40.0734 56.4232C40.0788 56.4836 40.0987 56.5428 40.1122 56.6034C40.1704 56.6081 40.2079 56.6175 40.2436 56.6129C40.346 56.5998 40.4488 56.5862 40.5493 56.5636C42.0024 56.2377 43.402 55.7598 44.7392 55.1058C45.4733 54.7468 45.4724 54.7462 45.8692 54.0257C45.9102 53.9512 45.9661 53.8848 46.0236 53.8025C46.1014 53.8683 46.1595 53.9175 46.2176 53.9665C46.2854 54.0238 46.3532 54.081 46.4272 54.1434C46.4929 54.1125 46.5532 54.0908 46.6062 54.0576C46.7033 53.9969 46.7962 53.9294 46.9237 53.8422ZM18.5084 33.2715C18.4712 33.3787 18.4417 33.4493 18.4219 33.5226C18.0828 34.7755 17.8537 36.0481 17.7825 37.3436C17.6971 38.8976 17.7898 40.4437 18.0942 41.9721C18.6564 44.7954 19.8109 47.3578 21.5657 49.6517C22.0349 50.265 22.5392 50.8483 23.0851 51.3955C23.1429 51.4534 23.1894 51.5521 23.323 51.5026L23.4244 50.2757C23.7303 50.4696 24.0074 50.6516 24.2909 50.823C24.5664 50.9896 24.8443 51.1533 25.1291 51.3035C25.4252 51.4597 25.7271 51.6064 26.0333 51.7422C26.3385 51.8777 26.6522 51.9945 26.9678 52.1217L27.3672 53.7837C27.3029 53.8001 27.2086 53.8225 27.0934 53.8438C26.8855 53.882 26.7204 53.896 26.5561 53.9095C26.4767 53.916 26.3686 53.9236 26.2393 53.9289C26.4803 54.161 26.7509 54.3051 27.0262 54.4368C27.1004 54.4723 27.203 54.4512 27.2927 54.4524C27.433 54.4542 27.5734 54.4529 27.7193 54.4529C27.7375 54.5022 27.7757 54.5963 27.8442 54.7015C28.0469 55.013 28.343 55.1571 28.4908 55.2269C30.278 56.0701 31.2255 56.2918 32.4394 56.5636C32.5614 56.5909 32.688 56.6373 32.8228 56.5759C32.8877 56.4188 32.8804 56.2503 32.8885 56.0865C32.9244 55.357 32.9555 54.6273 32.9858 53.8976C33.0209 53.0526 33.052 52.2075 33.0874 51.3625C33.1125 50.7609 33.1405 50.1593 33.1694 49.5578C33.21 48.7131 33.256 47.8686 33.2934 47.0238C33.3315 46.1662 33.3584 45.3081 33.3969 44.4504C33.4314 43.6824 33.4784 42.915 33.5135 42.1471C33.5515 41.3151 33.5833 40.4828 33.6143 39.6505C33.619 39.5256 33.6494 39.395 33.5694 39.2663C33.2403 39.0867 32.8601 38.9922 32.5013 38.7811C32.5849 38.7085 32.647 38.6498 32.714 38.5972C32.9877 38.3829 33.2646 38.1726 33.5362 37.9557C33.5943 37.9093 33.665 37.8473 33.6777 37.7824C33.7069 37.6328 33.7073 37.4772 33.7129 37.3238C33.7155 37.2508 33.7344 37.1689 33.6406 37.1028C33.5342 37.1264 33.4588 37.2169 33.3707 37.285C32.9327 37.6236 32.4968 37.9649 32.0571 38.3013C31.9774 38.3622 31.8835 38.4048 31.8081 38.4488C31.0199 38.1186 29.66 37.2484 29.3933 36.9003C29.5158 36.8497 29.6328 36.7989 29.7517 36.7525C30.2931 36.5413 30.819 36.2976 31.3229 36.0089C31.3813 35.9754 31.4217 35.9111 31.4968 35.8341C31.3207 35.7844 31.1815 35.7563 31.0512 35.7059C30.843 35.6253 30.6629 35.6577 30.4621 35.7544C30.0563 35.9496 29.6355 36.114 29.2198 36.2884C29.125 36.3282 29.026 36.3585 28.928 36.3904C28.8063 36.43 28.7008 36.4074 28.6121 36.3099C28.5604 36.253 28.4977 36.2057 28.4463 36.1484C28.1545 35.8233 27.8605 35.5 27.5762 35.1684C27.4798 35.0561 27.3797 34.9758 27.2286 34.9486C26.8352 34.8779 26.4439 34.796 26.0516 34.7196C24.6848 34.4533 23.3176 34.1889 21.9511 33.9209C20.8756 33.7099 19.8011 33.4942 18.7258 33.2826C18.6648 33.2706 18.6005 33.2757 18.5084 33.2715ZM50.612 53.9503C50.4807 54.0602 50.3719 54.1496 50.2649 54.2411C48.7392 55.5457 47.0622 56.6174 45.2275 57.4424C43.5031 58.2178 41.7098 58.7657 39.8339 59.0459C38.7471 59.2083 37.6566 59.314 36.5579 59.3169C36.0809 59.3182 35.6038 59.2801 35.1266 59.2638C34.3508 59.2373 33.5824 59.1361 32.8206 59.002C31.0601 58.6923 29.3637 58.1711 27.7358 57.4325C25.9033 56.601 24.2282 55.5284 22.7012 54.2257C22.5965 54.1364 22.506 54.0244 22.3626 53.9773C22.3127 54.014 22.2659 54.0381 22.2325 54.0744C20.4713 55.9833 18.7112 57.8932 16.9525 59.8044C16.9287 59.8302 16.9249 59.8742 16.9125 59.9078C18.1205 61.1546 21.1729 63.3668 24.2577 64.7665C28.4271 66.6582 32.8027 67.5481 37.3784 67.4132C41.8865 67.2803 46.1457 66.165 50.1409 64.0755C52.2306 62.9826 55.5043 60.6867 56.088 59.8907C56.0749 59.8595 56.0685 59.8175 56.0445 59.7915C54.2854 57.8806 52.525 55.9709 50.7635 54.0622C50.73 54.0258 50.6828 54.0018 50.612 53.9503ZM54.4049 32.9988C54.3658 32.8599 54.3367 32.7366 54.2964 32.6171C54.0378 31.8514 53.7432 31.0995 53.3877 30.3728C53.1254 29.8366 53.2219 29.8975 52.6066 29.8914C52.5162 29.8905 52.4257 29.8912 52.3353 29.8912C48.0459 29.8912 43.7566 29.8913 39.4673 29.8911C39.3252 29.8911 39.1827 29.8949 39.0411 29.8863C38.9685 29.882 38.8973 29.8541 38.8056 29.8321C38.7519 28.4755 38.6987 27.1335 38.6459 25.7973C38.7688 25.7032 38.8763 25.6319 38.9708 25.5463C39.2279 25.3137 39.4822 25.0776 39.7311 24.8364C39.7806 24.7883 39.8013 24.711 39.8468 24.6253C39.2967 24.3419 38.713 24.2396 38.1513 24.0889C38.1606 24.036 38.159 24.008 38.1705 23.987C38.2136 23.9085 38.2586 23.8307 38.3071 23.7553C38.8596 22.8967 39.5187 22.128 40.2813 21.4458C40.3849 21.3532 40.5157 21.2829 40.5726 21.1306C40.5634 21.0895 40.5528 21.04 40.5412 20.9908C40.4387 20.5578 40.1951 20.1938 39.9553 19.8299C38.9906 18.3656 37.246 17.602 35.4854 17.9687C33.0069 18.4851 31.6401 20.9012 32.1515 23.1073C32.4157 24.2471 33.0422 25.1386 34.0203 25.7889C34.1257 25.8589 34.2302 25.9302 34.3368 26.002C34.3197 26.3548 34.3005 26.6866 34.2882 27.0188C34.2561 27.8896 34.2279 28.7605 34.1953 29.6314C34.1917 29.7296 34.1698 29.8271 34.1533 29.9465H33.7061C32.4658 29.9465 31.2255 29.9451 29.9852 29.9484C29.8481 29.9487 29.6997 29.9094 29.5738 30.0145C29.4873 30.2819 29.597 30.5698 29.5067 30.852C29.4392 30.8426 29.3891 30.8387 29.3405 30.8283C28.6801 30.6864 28.0437 30.4674 27.463 30.129C27.087 29.9098 26.7056 29.8268 26.2836 29.8652C26.2451 29.8687 26.2056 29.8632 26.1676 29.8687C26.1201 29.8755 26.0607 29.8619 26.0304 29.9541C26.0627 29.9869 26.0984 30.037 26.1462 30.0696C27.081 30.7061 28.0877 31.1855 29.1981 31.4363C29.3598 31.4729 29.522 31.5081 29.6617 31.539C29.767 31.7956 29.8494 32.0256 29.9546 32.2448C30.0648 32.4742 30.1969 32.6933 30.3162 32.911C30.3013 32.9331 30.2966 32.9481 30.2866 32.9537C30.2429 32.9783 30.2 33.0078 30.1527 33.0219C29.0077 33.3634 27.8442 33.4209 26.6654 33.2431C26.5235 33.2217 26.4382 33.1512 26.389 33.0127C26.2122 32.5157 26.0905 32.0068 26.0117 31.4857C25.9483 31.0658 25.932 30.6445 25.9317 30.2211C25.9317 30.1106 25.9635 29.9886 25.8678 29.8978C25.8393 29.8888 25.8153 29.8759 25.7904 29.8742C25.7132 29.869 25.6357 29.8657 25.5583 29.8658C23.6852 29.8689 21.812 29.8725 19.9389 29.8763C19.9263 29.8763 19.913 29.8799 19.9013 29.8848C19.8897 29.8897 19.8797 29.8984 19.8553 29.9144C19.8488 29.9214 19.8264 29.9374 19.8146 29.9591C19.3206 30.863 18.9379 31.8129 18.6317 32.7938C18.6141 32.8502 18.6294 32.9166 18.6294 32.973C18.8987 33.0768 26.2007 34.548 26.9796 34.6556C27.0269 34.6621 27.0773 34.6458 27.1385 34.6388C27.0935 34.3692 26.8618 34.1933 26.8211 33.9028C27.5086 33.9681 28.1738 33.9948 28.844 33.9201C29.5136 33.8455 30.1562 33.6653 30.7931 33.4932C31.0459 33.7124 31.2781 33.9147 31.5114 34.1159C31.7424 34.3152 32.0191 34.4586 32.2511 34.6871C32.1502 34.7597 32.07 34.8231 31.9843 34.8782C31.7568 35.0246 31.5252 35.1647 31.2996 35.3138C31.2536 35.3442 31.227 35.4033 31.178 35.4665C31.2675 35.4977 31.3261 35.5234 31.3873 35.5386C31.9777 35.6854 31.7898 35.7444 32.3114 35.4145C32.5056 35.2917 32.6944 35.1604 32.8876 35.0316C33.1051 35.1357 33.3033 35.2267 33.4979 35.3248C33.6903 35.4217 33.9043 35.4808 34.0728 35.6219C34.0586 35.7407 34.0403 35.8414 34.0353 35.9427C33.9871 36.9154 33.9387 37.888 33.8952 38.8609C33.8569 39.7186 33.8276 40.5767 33.7891 41.4345C33.7215 42.945 33.6504 44.4553 33.5799 45.9657C33.5363 46.9001 33.4886 47.8343 33.4474 48.7688C33.4084 49.6522 33.3765 50.5359 33.3395 51.4193C33.3095 52.1363 33.2775 52.8532 33.2448 53.57C33.2028 54.4917 33.1571 55.4131 33.118 56.3349C33.1088 56.5521 33.1262 56.7703 33.1199 56.9877C33.106 57.4744 33.0895 57.9611 33.0647 58.4473C33.0512 58.7113 33.0899 58.8011 33.3648 58.826C33.66 58.8527 33.9522 58.9129 34.2474 58.9401C34.903 59.0003 35.5588 59.0676 36.2189 59.0503C36.2807 59.0487 36.3421 59.031 36.4148 59.0188C36.4385 51.4198 36.4622 43.8208 36.486 36.2217C36.5361 36.1939 36.5861 36.1661 36.6362 36.1383C36.7038 51.3969 36.7185 58.1721 36.6924 58.3797C36.6902 58.3973 36.6828 58.5713 36.6966 58.8026C36.7009 58.8754 36.7285 58.9468 36.744 59.0119C37.3592 59.1056 39.4056 58.9219 39.8869 58.7255C39.8889 58.6121 39.8968 58.4861 39.8924 58.3605C39.8681 57.669 39.8402 56.9775 39.8149 56.286C39.8045 56.0043 39.7997 55.7223 39.7884 55.4406C39.7488 54.4547 39.705 53.469 39.6673 52.4831C39.6276 51.4458 39.5954 50.4082 39.5558 49.371C39.5181 48.385 39.4726 47.3994 39.4349 46.4135C39.3952 45.3762 39.3631 44.3386 39.3234 43.3013C39.2857 42.3154 39.2417 41.3297 39.2019 40.3439C39.1549 39.1787 39.1086 38.0135 39.0638 36.8482C39.054 36.5941 39.0322 36.3392 39.0584 36.0942C39.3738 35.9747 41.6647 35.5168 44.1531 35.0513C45.8643 34.7311 47.5686 34.3751 49.2796 34.0538C51.8543 33.5703 54.0503 33.1304 54.4049 32.9988ZM65.009 44.7629C65.0462 44.6447 65.0743 44.5739 65.0907 44.5006C65.3997 43.1226 65.5955 41.7275 65.6901 40.3204C65.79 38.8359 65.7859 37.3514 65.6491 35.8665C65.542 34.704 65.3804 33.5508 65.1394 32.4096C64.384 28.833 62.9915 25.5142 60.9618 22.4676C57.9116 17.889 53.8769 14.4278 48.8712 12.0858C46.8193 11.1258 44.677 10.4322 42.4589 9.96891C41.4355 9.75516 40.4006 9.60664 39.3604 9.50251C38.6408 9.4305 37.9183 9.4008 37.1943 9.39662C36.0187 9.38982 34.8427 9.37959 33.6718 9.49967C32.555 9.61423 31.4462 9.78111 30.3466 10.0142C27.6527 10.5852 25.0884 11.5079 22.6695 12.8113C17.205 15.7558 13.0764 19.9931 10.2773 25.5012C9.2144 27.5928 8.44368 29.7904 7.9312 32.076C7.65907 33.2897 7.45749 34.5154 7.36264 35.7567C7.3275 36.2165 7.28147 36.6762 7.26841 37.1367C7.24882 37.8281 7.23248 38.5207 7.25349 39.2116C7.28625 40.2874 7.36387 41.3616 7.53418 42.4257C7.64748 43.1336 7.78594 43.8376 7.91734 44.5425C7.93036 44.6124 7.97278 44.6768 8.00065 44.7417C8.24685 44.7707 8.45388 44.6812 8.66469 44.6347C9.76022 44.3933 10.8533 44.1411 11.9475 43.8936C13.1928 43.612 14.4384 43.3321 15.6832 43.0485C15.7539 43.0324 15.8185 42.99 15.9025 42.9524C15.8834 42.8264 15.8722 42.7128 15.8483 42.602C15.5991 41.4462 15.4751 40.2757 15.4246 39.0964C15.3741 37.915 15.4572 36.741 15.6122 35.57C15.7995 34.1549 16.1414 32.7779 16.6192 31.4328C19.2677 23.9785 26.2337 18.1412 35.1057 17.5367C36.5373 17.4391 37.9729 17.4836 39.3972 17.6872C40.7539 17.8811 42.0827 18.1929 43.3799 18.6375C49.2111 20.6365 53.8846 25.1004 56.1442 30.8334C56.9117 32.7806 57.3713 34.7994 57.5178 36.8821C57.656 38.8469 57.5339 40.8 57.1176 42.7305C57.1021 42.8025 57.102 42.8778 57.0933 42.9661C57.1912 42.9997 57.2724 43.0365 57.3577 43.0555C58.3639 43.2788 59.3667 43.516 60.3767 43.7249C61.8033 44.02 63.2181 44.3719 64.6382 44.698C64.7487 44.7234 64.8619 44.7375 65.009 44.7629ZM4.33118 38.2784C4.44342 38.1894 4.5776 38.2215 4.70342 38.2209C5.3235 38.2177 5.94361 38.221 6.5637 38.218C6.69012 38.2174 6.82225 38.2455 6.94132 38.1741C7.02361 38.0598 6.99978 37.9278 7.00621 37.8019C7.04141 37.1111 7.05444 36.4184 7.11373 35.7296C7.20826 34.6318 7.37343 33.5425 7.59952 32.463C8.12238 29.9668 8.95341 27.5768 10.1084 25.2983C10.1597 25.1971 10.2004 25.0906 10.245 24.989C10.1637 24.8418 10.0222 24.7958 9.9029 24.7272C8.85282 24.1235 7.80039 23.5237 6.74917 22.9219C6.61581 22.8456 6.48532 22.7643 6.3333 22.6731C6.40471 22.4421 6.53801 22.2535 6.64372 22.0533C6.74554 21.8605 6.85637 21.6722 6.96649 21.4839C7.08309 21.2844 7.19916 21.0844 7.32359 20.8897C7.4392 20.7089 7.52443 20.5052 7.70878 20.3416C8.37144 20.698 9.01092 21.0809 9.65927 21.4479C10.309 21.8157 10.9557 22.1887 11.5844 22.5483C11.7619 22.507 11.8036 22.3725 11.8724 22.2699C12.3947 21.4902 12.9469 20.7322 13.5455 20.0086C17.7466 14.9306 23.0442 11.5627 29.4748 9.96479C30.59 9.68768 31.7178 9.47605 32.8613 9.35406C33.4257 9.29386 33.9918 9.24976 34.557 9.1965C34.7228 9.18088 34.888 9.15887 35.0362 9.14181C35.1445 9.02773 35.1222 8.90724 35.1234 8.79584C35.1274 8.41138 35.1254 8.02686 35.1254 7.64237C35.1256 6.75802 35.1246 5.87369 35.1265 4.98933C35.1267 4.85126 35.1054 4.70802 35.1778 4.5844C35.5574 4.49432 37.3865 4.49116 37.8182 4.58062C37.8801 4.7051 37.8561 4.84779 37.8563 4.98496C37.8585 6.20255 37.8571 7.42011 37.8582 8.63767C37.8584 8.78954 37.8669 8.94138 37.8713 9.08649C38.0744 9.1945 38.2716 9.18451 38.4614 9.19647C42.74 9.4664 46.7638 10.6204 50.5294 12.6467C54.8356 14.9638 58.3422 18.157 61.0714 22.1919C61.1505 22.3087 61.2326 22.4235 61.316 22.5373C61.3299 22.5563 61.3578 22.5653 61.3912 22.5865C61.531 22.5811 61.6418 22.4843 61.7618 22.4159C62.8254 21.8096 63.8867 21.1996 64.9494 20.5916C65.0703 20.5223 65.1948 20.4591 65.3122 20.396C65.6083 20.7374 66.4783 22.2308 66.6689 22.7224C66.5789 22.7812 66.4871 22.848 66.3892 22.9043C65.2942 23.5334 64.1981 24.1605 63.1029 24.7894C62.9933 24.8523 62.8885 24.9236 62.7607 25.004C62.8219 25.1393 62.87 25.256 62.9264 25.3685C63.8623 27.2327 64.5881 29.1746 65.1037 31.1928C65.3988 32.348 65.622 33.5173 65.7679 34.7014C65.895 35.7325 65.9832 36.7654 65.9953 37.8044C65.9967 37.9292 65.9703 38.0621 66.0564 38.1747C66.1772 38.2442 66.309 38.2175 66.4356 38.2181C67.0557 38.221 67.6758 38.2177 68.2958 38.2209C68.4218 38.2216 68.5556 38.1898 68.669 38.2756C68.8172 39.5993 68.4874 43.1951 67.8067 45.9211C67.1799 48.431 66.2712 50.8338 65.0717 53.1434C65.1601 53.2121 65.2241 53.2741 65.2989 53.3178C65.6659 53.5325 66.0364 53.7415 66.4044 53.9547C66.4916 54.0052 66.5739 54.0642 66.6542 54.1165C66.5114 54.5384 65.6497 56.0359 65.3181 56.4385C64.7606 56.193 64.2654 55.818 63.7047 55.5656C63.5636 55.651 63.5078 55.7862 63.4317 55.9013C62.6151 57.1351 61.7322 58.3205 60.7378 59.4181C60.1406 60.0773 59.6028 60.7716 59.1147 61.5152C58.1888 62.9259 57.0788 64.1954 55.912 65.4144C53.7458 67.6777 51.3906 69.7325 48.9004 71.6369C48.8084 71.7073 48.7151 71.7761 48.62 71.8423C48.6011 71.8556 48.5714 71.8537 48.523 71.8637C48.49 71.7758 48.4494 71.6858 48.4223 71.5921C48.2408 70.9645 48.0634 70.3357 47.8815 69.7082C47.8576 69.6259 47.8151 69.5488 47.7746 69.4537C47.6958 69.4823 47.6344 69.497 47.5802 69.5254C45.8559 70.4286 44.1351 71.3374 42.5015 72.399C40.3005 73.8294 38.364 75.5462 36.7397 77.6041C36.6841 77.6745 36.6263 77.7435 36.5666 77.8106C36.5504 77.8288 36.5236 77.8377 36.493 77.856C36.3596 77.7963 36.2961 77.6632 36.2101 77.5556C35.2041 76.2953 34.0823 75.147 32.8361 74.1191C31.5811 73.0841 30.2335 72.1804 28.8171 71.3803C27.729 70.7656 26.6238 70.1808 25.5251 69.5847C25.4371 69.537 25.3406 69.5044 25.2569 69.4686C25.1032 69.5498 25.1089 69.6945 25.0745 69.8102C24.9066 70.3751 24.7498 70.9433 24.5876 71.5098C24.5561 71.6198 24.518 71.7279 24.4845 71.8318C24.331 71.8786 24.2568 71.7654 24.1729 71.699C23.3451 71.0436 22.5102 70.3963 21.6992 69.721C19.8865 68.2118 18.1643 66.6065 16.567 64.8725C15.4761 63.6884 14.4479 62.4535 13.5882 61.0913C13.2918 60.6217 12.9564 60.1906 12.5811 59.7819C11.483 58.586 10.4973 57.3023 9.59935 55.9522C9.52205 55.836 9.44227 55.7215 9.35325 55.5909C9.25332 55.6308 9.16833 55.6545 9.0936 55.6962C8.74484 55.8911 8.39918 56.0914 8.05183 56.2887C7.94069 56.3519 7.82781 56.412 7.69507 56.4848C7.51974 56.3188 7.42688 56.1065 7.30627 55.9152C7.18984 55.7306 7.07892 55.5425 6.96932 55.3539C6.8533 55.1541 6.7387 54.9534 6.62899 54.7501C6.52659 54.5604 6.40052 54.3812 6.33118 54.1463C6.60264 53.988 6.8714 53.8377 7.13358 53.6768C7.39369 53.5173 7.68625 53.4062 7.92692 53.1774C7.64837 52.5928 7.36197 52.0214 7.10214 51.4383C6.83607 50.8411 6.58149 50.238 6.34871 49.6275C6.1205 49.029 5.911 48.4223 5.72093 47.8107C5.52713 47.1872 5.35274 46.5568 5.19609 45.923C5.04249 45.3016 4.90547 44.6751 4.79142 44.0454C4.67734 43.4156 4.58737 42.7808 4.51135 42.1452C4.43379 41.4968 4.37901 40.8454 4.32716 40.1943C4.26791 39.4508 4.27667 38.5687 4.33118 38.2784Z" fill="white"/>
<path d="M39.4085 20.9746C39.3208 20.9421 39.2402 20.8963 39.1544 20.8829C38.6328 20.8013 38.1117 20.7121 37.587 20.656C37.268 20.6219 36.9417 20.6232 36.6209 20.643C35.9393 20.6849 35.3808 21.1485 35.237 21.7917C35.0786 22.4999 35.38 23.1317 35.9717 23.4616C36.3619 23.6793 36.7842 23.769 37.2083 23.7363C37.2524 23.6979 37.2763 23.6842 37.2902 23.6638C37.348 23.5791 37.4033 23.4928 37.4585 23.4065C37.9443 22.6469 38.5204 21.9594 39.1509 21.3146C39.2464 21.217 39.3754 21.1401 39.4085 20.9746ZM39.9718 20.8568C39.8873 20.9399 39.835 20.9942 39.7797 21.0453C38.9072 21.8536 38.1318 22.7417 37.5261 23.7665C37.4364 23.9183 37.3261 23.9845 37.1528 23.9814C36.6952 23.9731 36.2539 23.9049 35.8504 23.6728C35.2185 23.3091 34.855 22.5948 34.9637 21.9264C35.0913 21.1417 35.6123 20.589 36.378 20.4358C36.5415 20.4031 36.7104 20.3723 36.8757 20.3771C37.8715 20.4063 38.8552 20.5263 39.8162 20.7979C39.8531 20.8083 39.8882 20.8249 39.9718 20.8568Z" fill="white"/>
<path d="M26.8394 49.5074C26.7433 49.4304 26.6561 49.3558 26.5641 49.2875C25.9344 48.82 25.336 48.3157 24.7582 47.7869C24.6162 47.657 24.478 47.5229 24.3315 47.3982C24.2906 47.3634 24.2267 47.3551 24.155 47.3276C23.9581 47.9778 23.8496 48.6186 23.7454 49.2602C23.7295 49.358 23.77 49.4353 23.847 49.4934C23.9186 49.5475 23.9925 49.599 24.0666 49.6498C24.7888 50.1441 25.5419 50.5847 26.3478 50.932C26.448 50.9752 26.5478 51.056 26.6865 50.9879C26.7355 50.5135 26.7852 50.0329 26.8394 49.5074ZM24.0815 46.8086C25.0364 47.7467 26.0093 48.606 27.0897 49.37C27.0324 50.0349 26.9755 50.6943 26.9184 51.3559C26.7843 51.4159 26.684 51.335 26.5849 51.2956C25.6827 50.936 24.8398 50.4667 24.0384 49.9227C23.8478 49.7933 23.6629 49.6559 23.4895 49.5322C23.511 48.8812 23.8502 47.3014 24.0815 46.8086Z" fill="white"/>
<path d="M27.0702 48.2363C27.2073 48.0601 27.2028 47.8592 27.2657 47.6826C27.3083 47.5632 27.2765 47.4585 27.2128 47.355C27.0785 47.1365 26.9484 46.9155 26.8162 46.6957C26.3471 45.9154 25.8786 45.1347 25.4073 44.3558C25.3574 44.2733 25.3318 44.1601 25.1744 44.1448C25.0368 44.4386 24.9489 44.7567 24.8471 45.0679C24.7444 45.3819 24.6059 45.6867 24.5499 46.0384C25.2642 46.779 26.0289 47.4627 26.8385 48.098C26.9053 48.1504 26.9854 48.1863 27.0702 48.2363ZM27.2474 48.7087C26.1417 47.9028 25.1794 47.0384 24.2703 46.0959C24.3697 45.6501 24.5364 45.2347 24.6778 44.8121C24.819 44.3897 24.94 43.9599 25.1208 43.5375C25.2633 43.5791 25.2965 43.6988 25.3519 43.7904C25.8432 44.6026 26.3307 45.4171 26.8194 46.2308C27.0241 46.5717 27.2234 46.9161 27.4366 47.2517C27.5414 47.4168 27.5616 47.5743 27.5038 47.7606C27.4136 48.0513 27.3436 48.3481 27.2474 48.7087Z" fill="white"/>
<path d="M44.0706 44.0683C44.1777 44.2498 44.8804 45.0818 45.0714 45.256C45.1018 45.256 45.1407 45.261 45.1779 45.2553C46.2374 45.0941 47.3004 45.0052 48.3729 45.0956C48.4169 45.0993 48.4635 45.0725 48.5086 45.06C48.3966 44.6383 47.6381 43.4861 47.2547 43.1565C46.5165 43.2491 45.7865 43.4503 45.0646 43.6816C44.7265 43.7898 44.3793 43.8808 44.0706 44.0683ZM48.9636 45.3828C47.6025 45.2661 46.2807 45.2976 44.951 45.5398C44.7284 45.2717 44.5137 45.0021 44.2868 44.743C44.0685 44.4935 43.8376 44.2549 43.6104 44.0095C44.1753 43.6246 46.5924 42.9213 47.3827 42.904C47.8307 43.312 48.7622 44.7593 48.9636 45.3828Z" fill="white"/>
<path d="M44.7616 40.6467C44.2125 40.8144 42.7255 41.6039 41.975 42.0948C41.9147 42.1342 41.8638 42.1876 41.787 42.2527C41.9259 42.4047 42.0878 42.486 42.2291 42.5912C42.3734 42.6985 42.5184 42.8051 42.6659 42.9081C42.8116 43.01 42.9288 43.1543 43.1172 43.2114C43.4739 43.0766 43.8318 42.934 44.195 42.8062C44.5466 42.6826 44.9031 42.5724 45.2585 42.46C45.6219 42.345 46.0044 42.2948 46.3657 42.1592C46.2051 41.8405 45.3501 41.0374 44.7616 40.6467ZM43.0475 43.4881C42.479 43.0816 41.9167 42.6795 41.3565 42.2789C41.3374 42.2089 41.3921 42.183 41.4314 42.1569C42.4611 41.4716 43.5419 40.8786 44.6824 40.3943C44.7169 40.3796 44.7558 40.3752 44.8206 40.3591C45.5635 40.9269 46.2567 41.5641 46.9084 42.2941C46.216 42.4754 45.5653 42.6219 44.9304 42.8187C44.2936 43.016 43.6727 43.2635 43.0475 43.4881Z" fill="white"/>
<path d="M45.757 46.333C45.9271 46.7157 46.0971 47.0594 46.2317 47.4161C46.3106 47.6252 46.4318 47.7132 46.6498 47.7425C47.0188 47.792 47.3854 47.8643 47.7498 47.9421C48.342 48.0685 48.9166 48.2558 49.4835 48.4664C49.5643 48.4965 49.6458 48.5536 49.7481 48.4584C49.7395 48.3719 49.7435 48.2686 49.7174 48.1734C49.5857 47.6933 49.4605 47.2106 49.3057 46.7376C49.1313 46.2049 49.1624 46.2691 48.6757 46.236C48.65 46.2343 48.6244 46.2315 48.5988 46.2285C47.7105 46.1229 46.8244 46.1766 45.9391 46.2679C45.8912 46.2729 45.8456 46.3006 45.757 46.333ZM46.2095 47.9241C45.9242 47.3169 45.6531 46.7397 45.3723 46.142C45.4375 46.1168 45.503 46.0762 45.5727 46.0669C46.3278 45.9661 47.0869 45.9125 47.8481 45.9416C48.323 45.9598 48.8032 45.9458 49.3034 46.0771C49.566 46.6263 49.7392 47.225 49.8848 47.8321C49.9702 48.1885 50.0737 48.5435 50.0737 48.9531C49.4183 48.7114 48.8001 48.4609 48.1538 48.2923C47.518 48.1264 46.8753 47.9982 46.2095 47.9241Z" fill="white"/>
<path d="M45.3067 25.1632C45.1239 24.726 44.3029 23.7556 43.8399 23.4126C43.805 23.4146 43.7638 23.4085 43.7288 23.4203C42.7824 23.7405 41.9038 24.1892 41.1064 24.7899C41.0601 24.8248 41.0292 24.8799 40.9865 24.9312C41.3134 25.2144 41.6226 25.4829 41.9331 25.75C41.9615 25.7745 41.9977 25.7901 42.0213 25.8043C42.5687 25.6746 43.1027 25.5304 43.6444 25.4246C44.1853 25.3189 44.7338 25.2516 45.3067 25.1632ZM45.7594 25.3978C44.4694 25.488 43.2025 25.6806 41.9679 26.1114C41.8117 25.9673 41.6648 25.8261 41.5115 25.6922C41.3665 25.5655 41.2177 25.4426 41.0651 25.325C40.9041 25.2009 40.7366 25.0851 40.572 24.9657C41.0505 24.3635 42.8552 23.3704 43.8812 23.1356C44.1714 23.3134 44.4888 23.6343 45.0091 24.2759C45.5199 24.9058 45.6582 25.1107 45.7594 25.3978Z" fill="white"/>
<path d="M29.0007 23.5376C28.3445 24.1752 27.8491 24.8118 27.4523 25.5367C27.9399 26.3631 28.5434 27.0717 29.2498 27.6948C29.3785 27.8084 29.486 27.9682 29.6996 27.9898C29.8872 27.5974 30.0728 27.209 30.2625 26.812C29.6609 25.8223 29.2681 24.7605 29.0007 23.5376ZM29.1631 23.0571C29.4014 24.4385 29.8238 25.6803 30.5357 26.7955C30.2862 27.336 30.046 27.8562 29.7945 28.4008C29.7398 28.3722 29.6694 28.3472 29.6131 28.3041C28.6628 27.5756 27.8776 26.7 27.2531 25.6825C27.2266 25.6394 27.2068 25.5922 27.1753 25.5299C27.6763 24.6153 28.3191 23.8106 29.1631 23.0571Z" fill="white"/>
</g>
</g>
<path d="M86.17 23V13.9H87.873L90.642 18.203L93.411 13.9H95.114V23H93.515V16.474L90.642 20.764H90.59L87.743 16.5V23H86.17ZM105.217 21.778C104.316 22.6967 103.176 23.156 101.798 23.156C100.42 23.156 99.2848 22.701 98.3921 21.791C97.4995 20.881 97.0531 19.7673 97.0531 18.45C97.0531 17.15 97.5038 16.0407 98.4051 15.122C99.3065 14.2033 100.446 13.744 101.824 13.744C103.202 13.744 104.337 14.199 105.23 15.109C106.123 16.019 106.569 17.1327 106.569 18.45C106.569 19.75 106.118 20.8593 105.217 21.778ZM99.6011 20.751C100.19 21.375 100.931 21.687 101.824 21.687C102.717 21.687 103.449 21.375 104.021 20.751C104.602 20.127 104.892 19.36 104.892 18.45C104.892 17.5487 104.597 16.786 104.008 16.162C103.427 15.5293 102.691 15.213 101.798 15.213C100.905 15.213 100.169 15.525 99.5881 16.149C99.0161 16.773 98.7301 17.54 98.7301 18.45C98.7301 19.3513 99.0205 20.1183 99.6011 20.751ZM108.501 23.104C108.128 23.104 107.76 23.0563 107.396 22.961L107.552 21.648C107.708 21.7 107.881 21.726 108.072 21.726C108.28 21.726 108.458 21.6957 108.605 21.635C108.761 21.5657 108.921 21.4097 109.086 21.167C109.259 20.9243 109.394 20.595 109.489 20.179C109.593 19.7543 109.68 19.165 109.749 18.411C109.818 17.657 109.853 16.7513 109.853 15.694V13.9H116.093V23H114.494V15.343H111.348V16.162C111.348 17.5747 111.287 18.749 111.166 19.685C111.045 20.6123 110.854 21.323 110.594 21.817C110.334 22.3023 110.039 22.6403 109.71 22.831C109.389 23.013 108.986 23.104 108.501 23.104ZM126.202 21.778C125.301 22.6967 124.161 23.156 122.783 23.156C121.405 23.156 120.27 22.701 119.377 21.791C118.485 20.881 118.038 19.7673 118.038 18.45C118.038 17.15 118.489 16.0407 119.39 15.122C120.292 14.2033 121.431 13.744 122.809 13.744C124.187 13.744 125.323 14.199 126.215 15.109C127.108 16.019 127.554 17.1327 127.554 18.45C127.554 19.75 127.104 20.8593 126.202 21.778ZM120.586 20.751C121.176 21.375 121.917 21.687 122.809 21.687C123.702 21.687 124.434 21.375 125.006 20.751C125.587 20.127 125.877 19.36 125.877 18.45C125.877 17.5487 125.583 16.786 124.993 16.162C124.413 15.5293 123.676 15.213 122.783 15.213C121.891 15.213 121.154 15.525 120.573 16.149C120.001 16.773 119.715 17.54 119.715 18.45C119.715 19.3513 120.006 20.1183 120.586 20.751ZM128.446 24.95V21.57H129.33C130.102 20.0447 130.487 17.917 130.487 15.187V13.9H136.831V21.57H137.962L137.741 24.95H136.415V23H130.006L129.85 24.95H128.446ZM131.033 21.57H135.232V15.343H132.021V16.383C132.021 18.5063 131.692 20.2353 131.033 21.57ZM143.25 13.146V11.612H144.849V13.146H143.25ZM140.663 13.146V11.612H142.262V13.146H140.663ZM139.389 23V13.9H146.136V15.33H140.988V17.696H145.551V19.126H140.988V21.57H146.201V23H139.389ZM154.78 23H153.194V20.582L151.764 18.957L149.047 23H147.123L150.711 17.774L147.305 13.9H149.216L153.194 18.632V13.9H154.78V18.632L158.758 13.9H160.669L157.25 17.774L160.851 23H158.927L156.21 18.957L154.78 20.582V23ZM162.215 23V13.9H163.814V17.683H168.156V13.9H169.755V23H168.156V19.165H163.814V23H162.215ZM172.092 23V13.9H173.678V17.176H175.771C176.811 17.176 177.639 17.4273 178.254 17.93C178.878 18.424 179.19 19.1217 179.19 20.023C179.19 20.9417 178.882 21.6697 178.267 22.207C177.652 22.7357 176.815 23 175.758 23H172.092ZM173.678 21.57H175.732C176.33 21.57 176.789 21.44 177.11 21.18C177.439 20.9113 177.604 20.5213 177.604 20.01C177.604 19.542 177.439 19.1867 177.11 18.944C176.781 18.6927 176.313 18.567 175.706 18.567H173.678V21.57ZM180.269 23V13.9H181.855V23H180.269ZM189.443 12.704C189.079 13.0247 188.624 13.185 188.078 13.185C187.532 13.185 187.077 13.0247 186.713 12.704C186.349 12.3747 186.119 11.9283 186.024 11.365L186.999 11.183C187.163 11.7723 187.523 12.067 188.078 12.067C188.615 12.067 188.975 11.7723 189.157 11.183L190.119 11.365C190.032 11.9283 189.807 12.3747 189.443 12.704ZM184.191 23V13.9H185.764V20.543L190.366 13.9H191.861V23H190.288V16.37L185.699 23H184.191Z" fill="white"/>
<path d="M85.26 52.796V45.386H86.976C87.6867 43.7393 88.198 41.9973 88.51 40.16C88.822 38.3227 88.978 35.9133 88.978 32.932V30.8H102.212V45.386H104.396L103.876 52.796H100.522V49H89.134L88.874 52.796H85.26ZM98.208 34.414H92.826V36.26C92.826 39.692 92.28 42.734 91.188 45.386H98.208V34.414ZM107.192 49V30.8H120.92V34.362H111.17V38.054H119.75V41.616H111.17V45.438H121.05V49H107.192ZM133.138 49.312C130.468 49.312 128.241 48.4107 126.456 46.608C124.688 44.788 123.804 42.552 123.804 39.9C123.804 37.2653 124.696 35.038 126.482 33.218C128.267 31.398 130.538 30.488 133.294 30.488C134.871 30.488 136.197 30.748 137.272 31.268C138.346 31.7707 139.369 32.4987 140.34 33.452L137.948 36.208C137.168 35.4973 136.431 34.986 135.738 34.674C135.062 34.3447 134.238 34.18 133.268 34.18C131.742 34.18 130.477 34.7347 129.472 35.844C128.484 36.936 127.99 38.288 127.99 39.9C127.99 41.4947 128.484 42.8467 129.472 43.956C130.477 45.0653 131.742 45.62 133.268 45.62C134.238 45.62 135.079 45.4467 135.79 45.1C136.5 44.7533 137.254 44.216 138.052 43.488L140.6 46.218C139.612 47.2753 138.537 48.0553 137.376 48.558C136.232 49.0607 134.819 49.312 133.138 49.312ZM142.245 49L150.045 30.67H153.737L161.537 49H157.351L155.687 44.918H147.991L146.327 49H142.245ZM149.421 41.382H154.257L151.839 35.48L149.421 41.382ZM164.346 49V30.8H168.35V38.002H175.734V30.8H179.738V49H175.734V41.694H168.35V49H164.346ZM188.338 49V34.492H182.8V30.8H197.88V34.492H192.342V49H188.338Z" fill="white"/>
<path d="M90.395 68.156C89.0777 68.156 87.977 67.7053 87.093 66.804C86.209 65.894 85.767 64.776 85.767 63.45C85.767 62.1327 86.209 61.019 87.093 60.109C87.977 59.199 89.0993 58.744 90.46 58.744C91.2487 58.744 91.916 58.8653 92.462 59.108C93.0167 59.3507 93.5367 59.7017 94.022 60.161L92.995 61.344C92.1803 60.59 91.331 60.213 90.447 60.213C89.5803 60.213 88.861 60.525 88.289 61.149C87.7257 61.773 87.444 62.54 87.444 63.45C87.444 64.3513 87.73 65.1183 88.302 65.751C88.874 66.375 89.589 66.687 90.447 66.687C90.967 66.687 91.4263 66.5917 91.825 66.401C92.2237 66.2017 92.6353 65.9027 93.06 65.504L94.087 66.544C93.5757 67.0813 93.034 67.4843 92.462 67.753C91.89 68.0217 91.201 68.156 90.395 68.156ZM95.7677 68V58.9H102.515V60.33H97.3667V62.696H101.93V64.126H97.3667V66.57H102.58V68H95.7677ZM104.477 68V58.9H108.559C109.607 58.9 110.4 59.1687 110.938 59.706C111.345 60.1133 111.549 60.6247 111.549 61.24C111.549 62.1413 111.115 62.8173 110.249 63.268C111.453 63.6753 112.056 64.4207 112.056 65.504C112.056 66.3013 111.752 66.9167 111.146 67.35C110.539 67.7833 109.72 68 108.689 68H104.477ZM106.05 62.735H108.234C108.762 62.735 109.178 62.631 109.482 62.423C109.794 62.2063 109.95 61.89 109.95 61.474C109.95 61.11 109.811 60.8283 109.534 60.629C109.256 60.421 108.862 60.317 108.351 60.317H106.05V62.735ZM106.05 66.583H108.702C109.256 66.583 109.685 66.4747 109.989 66.258C110.301 66.0413 110.457 65.725 110.457 65.309C110.457 64.4943 109.833 64.087 108.585 64.087H106.05V66.583ZM113.078 68L117.082 58.835H118.564L122.568 68H120.878L119.955 65.803H115.652L114.716 68H113.078ZM116.237 64.386H119.37L117.797 60.746L116.237 64.386ZM128.354 68.156C127.037 68.156 125.936 67.7053 125.052 66.804C124.168 65.894 123.726 64.776 123.726 63.45C123.726 62.1327 124.168 61.019 125.052 60.109C125.936 59.199 127.058 58.744 128.419 58.744C129.208 58.744 129.875 58.8653 130.421 59.108C130.976 59.3507 131.496 59.7017 131.981 60.161L130.954 61.344C130.139 60.59 129.29 60.213 128.406 60.213C127.539 60.213 126.82 60.525 126.248 61.149C125.685 61.773 125.403 62.54 125.403 63.45C125.403 64.3513 125.689 65.1183 126.261 65.751C126.833 66.375 127.548 66.687 128.406 66.687C128.926 66.687 129.385 66.5917 129.784 66.401C130.183 66.2017 130.594 65.9027 131.019 65.504L132.046 66.544C131.535 67.0813 130.993 67.4843 130.421 67.753C129.849 68.0217 129.16 68.156 128.354 68.156ZM135.963 68V60.382H133.077V58.9H140.461V60.382H137.575V68H135.963ZM149.917 66.778C149.016 67.6967 147.876 68.156 146.498 68.156C145.12 68.156 143.985 67.701 143.092 66.791C142.2 65.881 141.753 64.7673 141.753 63.45C141.753 62.15 142.204 61.0407 143.105 60.122C144.007 59.2033 145.146 58.744 146.524 58.744C147.902 58.744 149.038 59.199 149.93 60.109C150.823 61.019 151.269 62.1327 151.269 63.45C151.269 64.75 150.819 65.8593 149.917 66.778ZM144.301 65.751C144.891 66.375 145.632 66.687 146.524 66.687C147.417 66.687 148.149 66.375 148.721 65.751C149.302 65.127 149.592 64.36 149.592 63.45C149.592 62.5487 149.298 61.786 148.708 61.162C148.128 60.5293 147.391 60.213 146.498 60.213C145.606 60.213 144.869 60.525 144.288 61.149C143.716 61.773 143.43 62.54 143.43 63.45C143.43 64.3513 143.721 65.1183 144.301 65.751ZM153.201 68V58.9H160.624V68H159.025V60.343H154.8V68H153.201ZM170.725 66.778C169.824 67.6967 168.684 68.156 167.306 68.156C165.928 68.156 164.793 67.701 163.9 66.791C163.007 65.881 162.561 64.7673 162.561 63.45C162.561 62.15 163.012 61.0407 163.913 60.122C164.814 59.2033 165.954 58.744 167.332 58.744C168.71 58.744 169.845 59.199 170.738 60.109C171.631 61.019 172.077 62.1327 172.077 63.45C172.077 64.75 171.626 65.8593 170.725 66.778ZM165.109 65.751C165.698 66.375 166.439 66.687 167.332 66.687C168.225 66.687 168.957 66.375 169.529 65.751C170.11 65.127 170.4 64.36 170.4 63.45C170.4 62.5487 170.105 61.786 169.516 61.162C168.935 60.5293 168.199 60.213 167.306 60.213C166.413 60.213 165.677 60.525 165.096 61.149C164.524 61.773 164.238 62.54 164.238 63.45C164.238 64.3513 164.528 65.1183 165.109 65.751ZM174.009 68.104C173.636 68.104 173.268 68.0563 172.904 67.961L173.06 66.648C173.216 66.7 173.389 66.726 173.58 66.726C173.788 66.726 173.966 66.6957 174.113 66.635C174.269 66.5657 174.429 66.4097 174.594 66.167C174.767 65.9243 174.902 65.595 174.997 65.179C175.101 64.7543 175.188 64.165 175.257 63.411C175.326 62.657 175.361 61.7513 175.361 60.694V58.9H181.601V68H180.002V60.343H176.856V61.162C176.856 62.5747 176.795 63.749 176.674 64.685C176.553 65.6123 176.362 66.323 176.102 66.817C175.842 67.3023 175.547 67.6403 175.218 67.831C174.897 68.013 174.494 68.104 174.009 68.104ZM183.247 68L185.73 64.581C185.063 64.399 184.534 64.074 184.144 63.606C183.754 63.1293 183.559 62.527 183.559 61.799C183.559 60.915 183.863 60.213 184.469 59.693C185.076 59.1643 185.904 58.9 186.952 58.9H190.995V68H189.409V64.854H187.394L185.132 68H183.247ZM187.056 63.463H189.409V60.343H187.082C186.484 60.343 186.016 60.4817 185.678 60.759C185.34 61.0277 185.171 61.409 185.171 61.903C185.171 62.3797 185.34 62.761 185.678 63.047C186.025 63.3243 186.484 63.463 187.056 63.463Z" fill="white"/>
<defs>
<clipPath id="clip0_23_406">
<rect width="72" height="82" fill="white"/>
</clipPath>
</defs>
</svg>
